<?xml version="1.0" encoding="utf-8"?>
<!-- Generator: Adobe Illustrator 26.5.0, SVG Export Plug-In . SVG Version: 6.00 Build 0)  -->
<svg version="1.1" id="Ebene_1" xmlns="http://www.w3.org/2000/svg" xmlns:xlink="http://www.w3.org/1999/xlink" x="0px" y="0px"
	 viewBox="0 0 1516 342.1" style="enable-background:new 0 0 1516 342.1;" xml:space="preserve">
<style type="text/css">
	.st0{fill:#646464;}
	.st1{fill:#FFFFFF;}
	.st2{fill:url(#SVGID_1_);}
	.st3{fill:url(#SVGID_00000170243276308984253670000009294633342570583978_);}
</style>
<path class="st0" d="M52.8,150.1c-3.2,5.7-4.7,12.4-4.7,19.9c0,7.5,1.6,14.1,4.7,19.9c3.2,5.7,7.6,10.3,13.2,13.6
	c5.6,3.4,12,5,19.1,5c6.5,0,12.4-1.1,17.5-3.4c5.1-2.3,9.7-5.6,13.6-9.9l24.9,25.2c-6.9,7.9-15.2,14-24.8,18.2
	c-9.6,4.3-20.1,6.4-31.6,6.4c-14.4,0-27.5-3.3-39.2-9.9c-11.7-6.6-20.9-15.6-27.6-27C11.4,196.8,8,184.2,8,170.3
	c0-14.2,3.4-27,10.1-38.4c6.7-11.4,15.9-20.3,27.6-26.9c11.7-6.5,24.8-9.8,39.5-9.8c11.3,0,21.7,2,31.2,6.1c9.5,4.1,17.8,10,24.9,18
	l-25.5,25.5c-3.6-4.3-8-7.6-13.2-9.8c-5.2-2.2-11-3.3-17.4-3.3c-7.1,0-13.5,1.6-19.1,4.9C60.4,139.9,56,144.4,52.8,150.1z M258,98.9
	c-5.4-2.3-11.7-3.4-18.8-3.4c-16,0-28.3,5.1-36.8,15.3c-0.1,0.1-0.2,0.3-0.3,0.4V98.5h-38.9v143.3h38.9v-78.9
	c0-10.9,2.6-18.9,7.9-24c5.2-5.1,12-7.7,20.3-7.7c4,0,7.5,0.5,10.5,1.6c3.1,1.1,5.7,2.9,7.9,5.5l24.3-28.2
	C268.4,104.9,263.4,101.2,258,98.9z M419,167.1c0,2.6-0.1,5.2-0.3,7.9c-0.2,2.7-0.7,5.6-1.5,8.8l-104.7,0.3c0.8,2.9,1.8,5.6,3.1,8.2
	c3.3,6.4,8,11.3,14.1,14.7c6.1,3.4,13.3,5,21.4,5c7.3,0,13.9-1.2,19.9-3.6s11.1-6.1,15.4-11.3l23.1,23.1
	c-7.3,8.3-15.9,14.5-25.8,18.7c-9.9,4.2-20.7,6.2-32.3,6.2c-15,0-28.4-3.3-40.2-9.8c-11.8-6.5-21-15.4-27.7-26.7
	c-6.7-11.3-10.1-24.1-10.1-38.6c0-14.2,3.3-27,9.9-38.3c6.6-11.3,15.7-20.2,27.2-26.7c11.5-6.5,24.3-9.8,38.6-9.8
	c13.5,0,25.5,3.1,36.2,9.2c10.7,6.1,19,14.6,24.9,25.5C416,140.8,419,153.2,419,167.1z M315.3,147.3c-1.2,2.3-2.1,4.9-2.8,7.5
	l69.3-0.2c-0.7-3.4-1.8-6.5-3.1-9.2c-2.8-5.7-6.6-10.1-11.6-13.1c-4.9-3-11.1-4.5-18.4-4.5c-7.7,0-14.4,1.7-20.2,5
	C322.7,136.3,318.3,141.1,315.3,147.3z M905.6,102.2c-8.5-4.5-18.1-6.7-28.8-6.7c-10.7,0-20.4,2.3-29.1,7
	c-6.9,3.7-12.8,8.6-17.7,14.6c-4.4-6.2-10-11.2-16.8-14.9c-8.1-4.5-17.1-6.7-27-6.7c-10.5,0-19.9,2.2-28.2,6.7
	c-4.5,2.4-8.4,5.3-11.9,8.8V98.5h-38.9v143.3h38.9v-84.3c0-5.7,1.2-10.6,3.7-14.5c2.5-4,5.7-7,9.8-9c4.1-2.1,8.7-3.1,13.8-3.1
	c7.7,0,14.1,2.3,19.3,7c5.1,4.7,7.7,11.1,7.7,19.4v84.6h39.2v-84.3c0-5.7,1.2-10.6,3.7-14.5c2.5-4,5.7-7,9.8-9
	c4.1-2.1,8.8-3.1,14.1-3.1c7.5,0,13.8,2.3,19,7c5.1,4.7,7.7,11.1,7.7,19.4v84.6h39.5v-90.5c0-11.7-2.5-21.7-7.6-30
	C920.9,113,914.1,106.7,905.6,102.2z M1065.9,98.5h39.2v143.3h-39.2v-13.4c-3.9,4-8.5,7.4-13.8,10.1c-8.2,4.2-17.5,6.2-27.7,6.2
	c-13.1,0-24.8-3.3-35.2-9.8c-10.4-6.5-18.5-15.4-24.5-26.7c-5.9-11.3-8.9-23.9-8.9-38c0-14.2,3-27,8.9-38.3
	c5.9-11.3,14.1-20.2,24.5-26.7c10.4-6.5,22.2-9.8,35.5-9.8c10.1,0,19.2,2.1,27.3,6.2c5.3,2.7,10,6.2,13.9,10.3V98.5z M1068.3,170.3
	c0-7.5-1.6-14.2-4.7-20.2c-3.2-5.9-7.4-10.5-12.8-13.8s-11.7-4.9-19-4.9c-7.1,0-13.4,1.7-18.8,5c-5.4,3.4-9.7,7.9-12.8,13.7
	c-3.1,5.7-4.6,12.4-4.6,19.9c0,7.7,1.5,14.4,4.6,20.2c3.1,5.7,7.4,10.3,12.9,13.7c5.5,3.4,11.8,5,18.7,5c10.9,0,19.7-3.7,26.4-11
	C1064.9,190.6,1068.3,181.4,1068.3,170.3z M1238,98.5h38.6v136.2c0,14-3.3,26.4-9.9,37.1c-6.6,10.7-15.8,18.9-27.4,24.8
	c-11.7,5.8-25.1,8.8-40.4,8.8c-15.4,0-28.9-2.7-40.5-8.2c-11.6-5.4-20.9-13.1-28-23l24.9-24.6c5.5,6.5,11.7,11.5,18.5,15
	c6.8,3.5,15.1,5.2,24.8,5.2c11.9,0,21.4-3.1,28.5-9.3c7.1-6.2,10.7-14.6,10.7-25.1v-12.4c-3.6,3.5-7.8,6.4-12.6,8.9
	c-8.2,4.2-17.6,6.2-28,6.2c-12.9,0-24.4-3.1-34.7-9.3c-10.3-6.2-18.4-14.8-24.2-25.7c-5.8-10.9-8.8-23-8.8-36.5
	c0-13.5,2.9-25.5,8.8-36.2c5.8-10.7,13.9-19.1,24.2-25.4c10.3-6.2,21.9-9.3,34.7-9.3c10.5,0,19.9,2,28.2,6.1
	c4.9,2.4,9.1,5.4,12.8,8.9V98.5z M1235.5,185.3c2.9-5.4,4.3-11.6,4.3-18.5c0-6.9-1.4-13.1-4.3-18.5c-2.9-5.4-7-9.7-12.3-12.8
	c-5.3-3.1-11.5-4.6-18.4-4.6c-7.1,0-13.3,1.5-18.5,4.6c-5.2,3.1-9.4,7.3-12.5,12.8c-3.1,5.4-4.6,11.5-4.6,18.2
	c0,6.9,1.5,13.1,4.5,18.5c3,5.4,7.2,9.7,12.6,12.8c5.4,3.1,11.5,4.6,18.2,4.6c7.3,0,13.6-1.5,18.8-4.5
	C1228.5,194.9,1232.6,190.7,1235.5,185.3z M1310.4,241.8h39.5V98.5h-39.5V241.8z M1330.3,30.9c-6.3,0-11.6,2.2-15.7,6.5
	c-4.2,4.4-6.2,9.6-6.2,15.7c0,6.3,2.1,11.6,6.2,15.9c4.2,4.3,9.4,6.4,15.7,6.4c6.5,0,11.8-2.1,15.9-6.4c4.1-4.3,6.1-9.5,6.1-15.9
	c0-6.1-2-11.4-6.1-15.7C1342.1,33,1336.8,30.9,1330.3,30.9z M1469.4,205.2c-5.1,2.3-11,3.4-17.5,3.4c-7.1,0-13.5-1.7-19.1-5
	c-5.6-3.4-10-7.9-13.2-13.6c-3.2-5.7-4.7-12.4-4.7-19.9c0-7.5,1.6-14.1,4.7-19.9c3.2-5.7,7.6-10.2,13.2-13.5
	c5.6-3.3,12-4.9,19.1-4.9c6.3,0,12.1,1.1,17.4,3.3c5.2,2.2,9.6,5.4,13.2,9.8l25.5-25.5c-7.1-7.9-15.4-13.9-24.9-18
	c-9.5-4.1-19.9-6.1-31.2-6.1c-14.6,0-27.8,3.3-39.5,9.8c-11.7,6.5-20.9,15.5-27.6,26.9c-6.7,11.4-10.1,24.2-10.1,38.4
	c0,13.8,3.4,26.5,10.1,37.8c6.7,11.4,15.9,20.4,27.6,27c11.7,6.6,24.7,9.9,39.2,9.9c11.5,0,22-2.1,31.6-6.4
	c9.6-4.3,17.8-10.3,24.8-18.2l-24.9-25.2C1479.1,199.6,1474.6,202.9,1469.4,205.2z"/>
<path class="st1" d="M624.5,171c7.6-11.3,14.5-22.7,20-34.7c19.4-42.8,2.2-91.8-36.3-115.7C569.7-3.4,518.3,2.7,487.7,34.8
	c-31.6,33.1-35.6,83.6-8.4,121.5c2.1,3,5.7,8.1,10.1,14.7c-4.4,6.5-7.9,11.7-10.1,14.7c-27.2,38-23.2,88.4,8.4,121.5
	c30.6,32.1,82,38.2,120.5,14.3c38.5-23.9,55.7-72.9,36.3-115.7C639.1,193.7,632.1,182.4,624.5,171z M589.3,278.7
	c-19.1,16.1-46.4,16.1-64.9,0.2c-19.3-16.6-23.2-43-9.1-64.9c0.5-0.7,0.9-1.4,1.4-2.1c19.5,29.5,38.9,59.1,38.9,59.1l27.6-40.5
	c-12-18.3-24.3-37.2-36.8-56.1c-0.7-1.1-1.5-2.2-2.3-3.4c0.8-1.1,1.5-2.2,2.3-3.4c12.5-18.9,24.9-37.8,36.8-56.1l-27.6-40.5
	c0,0-19.4,29.6-38.9,59.1c-0.5-0.7-0.9-1.4-1.4-2.1c-14.1-21.8-10.2-48.3,9.1-64.9c18.6-16,45.9-15.9,64.9,0.2
	c18.7,15.8,22.7,43.6,8.9,65.1c-0.4,0.6-0.8,1.3-1.2,1.9c-0.1-0.1-0.1-0.2-0.2-0.3c-0.1,0.1-0.1,0.2-0.2,0.3l0.1,0.4
	c-0.1,0.1-0.1,0.2-0.2,0.3l-0.2-0.3c-5.4,8.3-10.4,15.9-15.3,23.3c-3.7,5.4-7.5,10.9-11.3,16.6c0.1,0.1,0.1,0.2,0.2,0.3
	c-0.1,0.1-0.1,0.2-0.2,0.3c3.8,5.7,7.6,11.2,11.3,16.6c4.9,7.4,9.9,15,15.3,23.3l0.2-0.3c0.1,0.1,0.1,0.2,0.2,0.3l-0.1,0.4
	c0.1,0.1,0.1,0.2,0.2,0.3c0.1-0.1,0.1-0.2,0.2-0.3c0.4,0.6,0.8,1.2,1.2,1.9C612,235.1,608,263,589.3,278.7z"/>
<linearGradient id="SVGID_1_" gradientUnits="userSpaceOnUse" x1="461.2727" y1="203.5786" x2="652.5357" y2="203.5786">
	<stop  offset="0" style="stop-color:#C70000"/>
	<stop  offset="0.549" style="stop-color:#6A2C91"/>
</linearGradient>
<path class="st2" d="M644.5,205.8c-11.9-26.2-30.7-49.2-47.8-75.7c-0.1,0.1-0.1,0.2-0.2,0.3l0.2,1.1l-0.5-0.7
	c-9.7,14.8-18,27.4-26.6,40.6c9.9,14.7,19.5,28.3,28.5,42.3c13.8,21.5,9.8,49.3-8.9,65.1c-19.1,16.1-46.4,16.1-64.9,0.2
	c-19.3-16.6-23.2-43-9.1-64.9c10.1-15.6,20.8-30.8,31.1-46.4c12.5-18.9,24.9-37.8,36.8-56.1l-27.6-40.5c0,0-63.4,96.7-76.2,114.6
	c-27.2,38-23.2,88.4,8.4,121.5c30.6,32.1,82,38.2,120.5,14.3C646.7,297.6,663.9,248.6,644.5,205.8z"/>
<linearGradient id="SVGID_00000165213873975567954380000010104753432464813470_" gradientUnits="userSpaceOnUse" x1="461.2727" y1="138.4979" x2="652.5357" y2="138.4979">
	<stop  offset="0" style="stop-color:#F58220"/>
	<stop  offset="0.549" style="stop-color:#D61C21"/>
</linearGradient>
<path style="fill:url(#SVGID_00000165213873975567954380000010104753432464813470_);" d="M644.5,136.3
	c-11.9,26.2-30.7,49.2-47.8,75.7c-0.1-0.1-0.1-0.2-0.2-0.3l0.2-1.1l-0.5,0.7c-9.7-14.8-18-27.4-26.6-40.6
	c9.9-14.7,19.5-28.3,28.5-42.3c13.8-21.5,9.8-49.3-8.9-65.1c-19.1-16.1-46.4-16.1-64.9-0.2c-19.3,16.6-23.2,43-9.1,64.9
	c10.1,15.6,20.8,30.8,31.1,46.4c12.5,18.9,24.9,37.8,36.8,56.1L555.6,271c0,0-63.4-96.7-76.2-114.6c-27.2-38-23.2-88.4,8.4-121.5
	c30.6-32.1,82-38.2,120.5-14.3C646.7,44.5,663.9,93.5,644.5,136.3z"/>
</svg>
